<?xml version="1.0" encoding="utf-8"?>
<!-- Generator: Adobe Illustrator 25.4.1, SVG Export Plug-In . SVG Version: 6.00 Build 0)  -->
<svg version="1.1" id="Слой_1" xmlns="http://www.w3.org/2000/svg" xmlns:xlink="http://www.w3.org/1999/xlink" x="0px" y="0px"
	 viewBox="0 0 54.4 56.6" style="enable-background:new 0 0 54.4 56.6;" xml:space="preserve">
	<style type="text/css">
		.st0{fill:#7000FF;}
		.st1{fill:#FFA8A8;}
	</style>
	<path class="st0" d="M0.3,51.6c-0.3,0.5-0.6,2.6,0.2,3.3s0.8,1,1.6,1.6C3,57,5.1,55.5,5.5,55.1c6.4-7.1,11.8-5,17.4-9.4 c-1.7-1.2-3.4-2.5-5-3.9C12,46.1,5.4,43.3,0.3,51.6z"/>
	<path class="st0" d="M40.9,12.7c1.1-0.3,2.2-0.6,3.4-0.9c1.7-1.1,2.7-3,2.7-5c0-1.1-0.2-2.1-0.6-3.1c-3.7,3-7,3.6-10.2,4.7h0.8 C37,10.7,38.7,12.5,40.9,12.7z"/>
	<path class="st0" d="M51.2,8.3c0.9-0.9,1.8-1.9,2.4-3.1c1-1.2,0.9-3-0.3-4.1c-0.2-0.2-0.4-0.3-0.7-0.4c-0.4-0.3-0.9-0.6-1.4-0.7 c-0.1,0-0.5-0.2-1.6,0.6c1.1,1.9,1.7,4,1.7,6.2C51.3,7.3,51.3,7.8,51.2,8.3z"/>
	<path class="st0" d="M26.2,17c-4.2,7.8,1.3,13-5,21.4c-0.1,0.1-0.2,0.2-0.2,0.3c1.5,1.4,3.2,2.7,4.9,3.8l0.3-0.4 c5.7-7.7,1.6-12.6,4.1-19.4C28.6,21,27.2,19.1,26.2,17z"/>
	<path class="st0" d="M35.9,15.2c-1.6-1.3-2.7-3.2-3.1-5.2c-1.3,0.8-2.4,1.7-3.4,2.8c0.6,2.2,1.7,4.2,3.3,5.9l0.2-0.3 C33.7,17.2,34.7,16.1,35.9,15.2z"/>
	<path class="st1" d="M25.9,42.5c-1.7-1.1-3.4-2.4-4.9-3.8c-0.9,1.2-1.9,2.2-3.1,3c1.5,1.4,3.2,2.7,4.9,3.9 C24,44.7,25.1,43.6,25.9,42.5z"/>
	<path class="st1" d="M29.3,12.8c-0.6,0.6-1.1,1.2-1.6,1.9c-0.5,0.7-1,1.5-1.5,2.3c1,2.1,2.4,4,4.1,5.6c0.5-1.4,1.3-2.7,2.2-4 C31,17,29.9,15,29.3,12.8z"/>
	<path class="st1" d="M36.9,8.2l-0.8,0.2C35,8.8,33.8,9.3,32.7,10c0.4,2.1,1.5,3.9,3.1,5.3c1.5-1.1,3.2-2,5.1-2.5 C38.6,12.5,36.9,10.5,36.9,8.2z"/>
	<path class="st1" d="M48.5,1.7c-0.7,0.7-1.3,1.3-2.1,2c0.4,1,0.6,2,0.6,3.1c0,2-1,3.9-2.7,5c2.6-0.5,5-1.8,6.9-3.5 c0.1-0.5,0.1-1,0.1-1.5c0-2.2-0.6-4.3-1.7-6.2C49.3,1,48.9,1.3,48.5,1.7z"/>
	<path class="st1" d="M24.4,25v2.2c0.1,1.1,0.1,2.2,0,3.3c1,2.2,3.3,2.8,4.9,4.4c0.2-1.6,0.3-3.2,0.1-4.9C28,28.4,25,27.2,24.4,25z" />
</svg>
