<?xml version="1.0" encoding="utf-8"?>
<!-- Generator: Adobe Illustrator 25.4.1, SVG Export Plug-In . SVG Version: 6.00 Build 0)  -->
<svg version="1.1" id="Слой_1" xmlns="http://www.w3.org/2000/svg" xmlns:xlink="http://www.w3.org/1999/xlink" x="0px" y="0px"
	 viewBox="0 0 236 39.7" style="enable-background:new 0 0 236 39.7;" xml:space="preserve">
<style type="text/css">
	.st0{fill:#7000FF;}
	.st1{fill:#FFA8A8;}
</style>
<g>
	<path class="st0" d="M27.7,2.1C16.2,10,6.9,20.8,0.6,33.3C-0.6,35.2,0,37.8,1.9,39c0,0,0.1,0,0.1,0.1c0.7,0.4,1.4,0.6,2.2,0.6h39.1
		c2.3,0,4.2-1.9,4.2-4.2l0,0c0-0.7-0.2-1.5-0.5-2.2c-4.7-9.7-8.5-19.7-11.6-30c-0.2-0.8-0.7-1.6-1.4-2.1c-1.4-1-3.2-1.1-4.7-0.3
		C28.8,1.3,28.4,1.6,27.7,2.1z"/>
	<path class="st1" d="M29.7,12.5c-5.1,4.7-9.1,10.5-11.7,17c-0.6,1.1-0.3,2.5,0.8,3.1c0.3,0.2,0.6,0.3,0.9,0.3h18.6
		c1.2-0.1,2.1-1.2,2-2.4c0,0,0-0.1,0-0.1c-0.1-0.3-0.2-0.6-0.3-0.9c-2.3-5.3-6-15.4-6.7-16.8c-0.4-0.9-1.5-1.3-2.4-0.9
		c0,0-0.1,0-0.1,0.1C30.4,12,30.1,12.2,29.7,12.5z"/>
</g>
<g>
	<path class="st0" d="M206.6,0.9c-1.5-0.8-3.3-0.7-4.6,0.3c-0.7,0.5-1.1,1.3-1.4,2.1c-3,10.3-6.9,20.4-11.6,30
		c-0.3,0.7-0.5,1.4-0.5,2.2c0,2.3,1.9,4.2,4.2,4.2h39.1c0.8,0,1.5-0.2,2.2-0.6c2-1.2,2.6-3.7,1.4-5.7c0,0,0-0.1-0.1-0.1
		c-6.2-12.5-15.5-23.3-27-31.3C207.8,1.6,207.2,1.2,206.6,0.9z"/>
	<path class="st1" d="M205.2,11.7c-0.9-0.5-2-0.1-2.5,0.8c0,0,0,0.1-0.1,0.1c-0.7,1.4-4.4,11.5-6.7,16.8c-0.1,0.3-0.2,0.6-0.3,0.9
		c-0.2,1.2,0.7,2.4,1.9,2.5c0,0,0.1,0,0.1,0h18.7c0.3,0,0.6-0.2,0.9-0.3c1.1-0.6,1.4-2,0.8-3.1c-2.6-6.5-6.7-12.3-11.8-17
		C205.9,12.2,205.6,11.9,205.2,11.7z"/>
</g>
</svg>
