<svg xmlns="http://www.w3.org/2000/svg" viewBox="0 0 258.59 318.18"><defs><clipPath id="a"><path d="M5.8 216.91H250l.6 31.86-18.6 15.51-102.77 47.55-104-52.51a34.51 34.51 0 01-19.55-30.9l.13-11.51" fill="none"/></clipPath><style>.e{fill:none;stroke:#000;stroke-miterlimit:10}.d{fill:#0b0b0b}.e{stroke-width:1.4px}</style></defs><path d="M5.67 213.74v-31.83h247.1v31.83z" stroke="#231f20" stroke-width=".61" fill="none"/><path d="M112.21 3.65h34.17V30.8h108.27v26.66H146.38v27h-34.17v-27H2.9V30.8h109.31z" stroke-width="2" stroke="#000" stroke-miterlimit="10" fill="none"/><path class="d" d="M1.63 87.55h251.49l.18-5.11H1.64z"/><path d="M5.67 179.38v2.53h247.21v-2.53z"/><path class="d" d="M5.67 213.74v3.17h247.21v-3.17z"/><path d="M194.59 201.6l.53.14c.2.24.47.59.69.87 1.3 1.67 1.84 2.36 2.75 2.36h.3l.27-.12a1.68 1.68 0 01.66-.18c.3 0 .59.24 1.17.79a10.86 10.86 0 001 .9l.53.39.64-.16.45-.11a2.43 2.43 0 001 .21 3 3 0 00.73-.1 6.69 6.69 0 011.82-.36 1 1 0 01.28 0l.92.64.85-.8c.63-.59 1.68-1.57 2.39-1.57a.63.63 0 01.4.14l.76.53.79-.49a2.73 2.73 0 011.36-.52c.55 0 1.07.68 1.55 2l.11.29.22.22.16.16.46.47.66-.06h.45a3.3 3.3 0 012.05.82l.41.26.08.05h.09a3.55 3.55 0 001.43.37h.5l.22-.11a4.63 4.63 0 011.87-.4h.31a24.89 24.89 0 013.71.41 25.1 25.1 0 004 .44 9.3 9.3 0 001.09-.06h.19l.63-.16h.16a2.52 2.52 0 01.91-.21 5 5 0 011.21.25l.91.25h.13a4.54 4.54 0 00.59.05 2.43 2.43 0 001.8-.78 3.45 3.45 0 011.88.69 8 8 0 001.58.73c.53.19.65.22.72.66-.24.39-.37.39-.68.39s-.65-.05-1-.09h-.06a59.3 59.3 0 00-5.15-.2c-2.55 0-5 .12-7.88.28h-1.11c-1.3.06-2.66.11-4 .11h-20.96c-4.57 0-10.61 0-16.73.35h-.65c-.68 0-1.37 0-2.09-.07s-1.52-.08-2.29-.08a15.19 15.19 0 00-2.24.15c-.68 0-1.41.07-2.22.07-1.05 0-2.13 0-3.19-.08s-2.14-.06-3.25-.06c-1.36 0-2.55.05-3.65.15l-.72.08c-.47-.58-.55-.94-.53-1s.11-.2.51-.4h.29a4.81 4.81 0 002.78-1 2.42 2.42 0 011.2-.45 2.16 2.16 0 01.87.25l.76 1.53 1.38-1.47a.83.83 0 01.55-.29h.17a4.34 4.34 0 011.84.73h.14a3.67 3.67 0 001.45.23c.58 0 2.55-.08 3.36-1.14l.17-.23.07-.27c.18-.69.53-.69.67-.69a1.49 1.49 0 011.23.7l.35.53.63.09a6.12 6.12 0 00.65 0 4.08 4.08 0 00.67 0l1-.19.13-1c.09-.69.65-1.2 2.06-1.88l.41-.13h1l.39-.78a8.05 8.05 0 013.3-3m-.21-1.5zm0 0c-1.67 1-3.44 2.06-4.34 3.87h-.4l-.71.23c-1.33.64-2.72 1.44-2.92 3a2.1 2.1 0 01-.4 0 3 3 0 01-.46 0 2.86 2.86 0 00-2.32-1.34 2.06 2.06 0 00-2 1.74 3.5 3.5 0 01-2.25.59 2.7 2.7 0 01-.91-.12 5.54 5.54 0 00-2.52-.9 2.6 2.6 0 00-.4 0 2.17 2.17 0 00-1.34.71l-.08-.15a4.19 4.19 0 00-1.91-.6 3.94 3.94 0 00-2 .67 4.12 4.12 0 01-2.68.79c-2.47 1.07-1.56 2.87-.16 4.27l1.42-.16c1.15-.11 2.33-.14 3.5-.14s2.14 0 3.21.06 2.16.08 3.23.08c.79 0 1.58 0 2.37-.08a13.27 13.27 0 012.09-.14c1.46 0 2.94.15 4.38.15h.71c5.55-.28 11.11-.35 16.67-.35 5.2 0 10.41.06 15.61.06h5.37c1.71 0 3.43-.09 5.13-.15 2.63-.15 5.22-.28 7.83-.28 1.67 0 3.34 0 5 .2a9.51 9.51 0 001.19.1c1 0 1.53-.34 2.13-1.52-.3-2.47-1.43-1.84-3-2.85a5.23 5.23 0 00-3.16-.94c-.59.53-.7.82-1.27.82h-.38a11.18 11.18 0 00-2.46-.54 3.93 3.93 0 00-1.41.3l-.63.16c-.31 0-.62.05-.94.05-2.39 0-5.21-.85-7.7-.85h-.36a5.94 5.94 0 00-2.45.55h-.09a2.19 2.19 0 01-.85-.25c-1.21-.76-1.86-1.29-3.21-1.29h-.58l-.16-.16c-.66-1.83-1.55-2.94-2.87-2.94a4.07 4.07 0 00-2.1.73 2.07 2.07 0 00-1.21-.39c-1.28 0-2.51 1.16-3.37 2a1.87 1.87 0 00-1.07-.27 8.25 8.25 0 00-2.25.43 1.54 1.54 0 01-.38.06 1.77 1.77 0 01-.8-.3l-1 .24c-1.09-.81-1.75-2-3-2a3 3 0 00-1.23.3c-.36 0-2.12-2.54-2.68-3.08l-1.5-.39zm44.05-5.5h.07a2.6 2.6 0 011.59 1.12l.11.15.14.11.32.23.37.28h1.05l.35-.23.14-.09a2.43 2.43 0 00.73.12 3 3 0 001.67-.65 1.93 1.93 0 01.67-.13c1.08 0 2.05 1.3 2.87 2.62l.17.5.1.44-1.7 1.42-1-.15h-1.23c-.7 0-1.39 0-2.07.07s-1.3.06-1.93.06a11.15 11.15 0 01-2.4-.22h-1.31c-.87 0-1.71.07-2.53.14s-1.55.13-2.3.13a8.62 8.62 0 01-2.25-.27h-.36a3.06 3.06 0 00-1.35.44h-.07a6.48 6.48 0 01-1.56.18 12.63 12.63 0 01-1.37-.09c-.65-.07-1.31-.19-2-.31a22 22 0 00-3.71-.42h-.26a7.8 7.8 0 00-1.1-.08 16.23 16.23 0 00-2.26.2 14.6 14.6 0 01-1.92.18 6.1 6.1 0 01-.77-.05h-.09c-1.09-.08-2.16-.08-3.19-.08a28.92 28.92 0 01-4.41-.24c-.46-1-.34-1.08.5-1.73a2.71 2.71 0 011.66-.47c.36 0 .77 0 1.23.08h.4a2.86 2.86 0 002.22-.9l.39.18a11.88 11.88 0 002.11.84h.96l.41-.38a1 1 0 01.7-.26 2.63 2.63 0 011.69.79l1.09 1.09 1-1.2a1.65 1.65 0 011.47-.54 13.37 13.37 0 011.67.16 14.72 14.72 0 002 .19h.08a4.46 4.46 0 002.73-.75l.1-.07.08-.09c.38-.39.6-.43.82-.43a4.71 4.71 0 01.87.13 8.44 8.44 0 001.63.2 5.07 5.07 0 00.55 0h.15l.14-.05.24-.08.25-.08.2-.16.35-.3a7.23 7.23 0 001.34.16 3.58 3.58 0 002-.55l.1-.07.09-.08a2.79 2.79 0 011.67-.9m0-1.4a4 4 0 00-2.61 1.26 2.21 2.21 0 01-1.21.34 9.86 9.86 0 01-1.71-.26l-.87.71-.24.08h-.4c-.92 0-1.72-.33-2.5-.33a2.39 2.39 0 00-1.83.86 3.06 3.06 0 01-1.9.48h-.08c-1.17 0-2.49-.35-3.68-.35a3 3 0 00-2.55 1.06 4 4 0 00-2.68-1.2 2.36 2.36 0 00-1.66.64h-.08c-1-.23-2.2-1-3.24-1.34-.63.77-.84 1.19-1.81 1.19-.59-.05-1.12-.11-1.63-.11a4.06 4.06 0 00-2.48.74c-1.86 1.43-1.53 2.3-.63 4.1 2.81.6 5.58.27 8.45.48a7.73 7.73 0 001 .06c1.42 0 2.79-.38 4.18-.38a5.81 5.81 0 011 .08h.35a52.61 52.61 0 015.57.72 12.93 12.93 0 001.52.1 7.64 7.64 0 002-.26 5.44 5.44 0 01.95-.39 10.28 10.28 0 002.61.31c1.62 0 3.21-.27 4.83-.27h1a12.93 12.93 0 002.7.25c1.33 0 2.67-.13 4-.13h1l1.66.24 2.84-2.37-.32-1.34-.23-.71c-1-1.62-2.27-3.43-4.15-3.43a3.44 3.44 0 00-1.3.27c-.58.36-.8.51-1 .51a3.47 3.47 0 01-.93-.27l-.71.47h-.16l-.32-.23a3.75 3.75 0 00-2.6-1.66h-.15zm-34.64-7.97h.33a1.6 1.6 0 01.81.22l.76.54.79-.51a1.32 1.32 0 01.54-.24 3.21 3.21 0 01.67.17l.6.17h.1a31.07 31.07 0 005.62.41h4.29l.09.16.71 1.29 1.25-.77.13-.07a2.94 2.94 0 011.42-.63 1.62 1.62 0 01.41.06l.22.07h.37a5.2 5.2 0 011.69.32h.05l.82.29a11 11 0 001.94.59l.28.14.68.34.66-.39a7.75 7.75 0 011.55-.59c.46-.14.92-.28 1.39-.47a9.75 9.75 0 001.72.38h.15c2.35 0 3.33.1 4.87 1l-.29.87c-.94.05-1.87.15-2.77.25a33.19 33.19 0 01-3.36.24 8.76 8.76 0 01-3.72-.71l-.67-.3-.63.38a5.81 5.81 0 01-2.38.76 10.28 10.28 0 01-1.42.09c-1 0-2-.1-3.05-.2s-2.16-.21-3.23-.21a13.17 13.17 0 00-1.45.07h-.93c-1.22 0-2.47-.07-3.67-.13s-2.5-.13-3.77-.13a26.33 26.33 0 00-4 .28 6.25 6.25 0 00-1.84-.25 15.27 15.27 0 00-1.69.12c-.51.05-1 .1-1.45.1a4.3 4.3 0 01-.75-.06 3.92 3.92 0 01-.79-.36l-.34-.27h-.44c-1.45-.08-3-.12-4.86-.12-1.62 0-3.25 0-4.83.06-1.37 0-2.77.05-4.16.06a4.06 4.06 0 01-.38-.49c1.06-1.19 3-1.45 5-1.52h1c.53 0 1.12.06 1.72.06a6.73 6.73 0 003.08-.53 5.43 5.43 0 011.84-.31 14.44 14.44 0 012.19.23c.7.11 1.43.22 2.25.28h.31c.45-.07 1-.18 1.48-.3a15.79 15.79 0 013.15-.49m0-1.4a30.61 30.61 0 00-4.85.81c-1.68-.11-3.07-.51-4.53-.51a6.72 6.72 0 00-2.41.43 5.74 5.74 0 01-2.51.41c-1 0-2.08-.09-2.78-.09-2.51.09-5.29.47-6.55 2.84a5.8 5.8 0 001.42 2c3.18 0 6.38-.12 9.58-.12 1.59 0 3.19 0 4.78.12a4.72 4.72 0 001.34.63 5.49 5.49 0 001.06.09c1.06 0 2.11-.22 3.14-.22a4.65 4.65 0 011.72.29 24.61 24.61 0 014.16-.32c2.48 0 4.93.26 7.44.26h1a12 12 0 011.35-.07c2 0 4.2.41 6.28.41a12.32 12.32 0 001.61-.1 7.43 7.43 0 002.92-.95 10.18 10.18 0 004.29.83c2.35 0 4.72-.51 7.15-.51l.95-2.85c-2.44-1.63-3.61-1.81-6.55-1.81a14.63 14.63 0 01-2-.47c-1.13.56-2.54.74-3.55 1.34l-.47-.24a16.34 16.34 0 01-2.76-.87 6.57 6.57 0 00-2.17-.4h-.2a3 3 0 00-.8-.12 4.35 4.35 0 00-2.28.91l-.47-.87h-5.14a28.87 28.87 0 01-5.36-.39 7.64 7.64 0 00-1.63-.38 2.32 2.32 0 00-1.29.46 3 3 0 00-1.5-.47h-.44zM168.16 194h.06c.38 0 1 .15 1.62 1.16l.07.11.08.09a2.53 2.53 0 001.3.79c.31.5.57 1 .83 1.54l.18.35.87 1.73 1.37-1.37a2.33 2.33 0 01.7-.47 1.12 1.12 0 01.43-.08 2 2 0 011.36.84l.14.17.19.12a4.84 4.84 0 002.31.64 2.31 2.31 0 011.65.52l.16.16.21.11a2 2 0 01.74.56c-.43.71-.69.73-1.7.73h-.21a10.76 10.76 0 00-1.21.12 15.53 15.53 0 00-2.64-.21c-.75 0-1.48 0-2 .08l-.73.06c-1.1.09-2.24.18-3.33.18a14.91 14.91 0 01-2.13-.14l-.41-.08a21.77 21.77 0 00-3.89-.48 7.17 7.17 0 00-2.43.38l-.2.08-.18.13-.29.23-7.75-.52h-.31l-.3.12a5.6 5.6 0 01-2.15.36c-.41 0-.82 0-1.26-.05s-1-.06-1.47-.06-.71 0-1 .05h-.2a11 11 0 01-2.57.25c-.67 0-1.34 0-2-.06s-1.43-.07-2.1-.07c-3.84-.11-7-.25-10-.43l-.3-.37a21.62 21.62 0 012.24-1.38h.08l.08-.06a2.58 2.58 0 011.57-.68 5.59 5.59 0 011.33.24 7.41 7.41 0 003.13.78h.56l.19.14.63.47.73-.29a7.79 7.79 0 001-.49 2.14 2.14 0 01.95-.37 1 1 0 01.33 0h.49a6.62 6.62 0 002-.47 8.47 8.47 0 011.13-.33c.29 0 .58.05.89.09a8.16 8.16 0 001.15.11 3.74 3.74 0 00.68-.06h.18l.84-.28a5 5 0 011.51-.38 1.62 1.62 0 011 .33l.51.34.6-.15a4.17 4.17 0 002.19-1.45c.42 0 .87.08 1.33.08a5.24 5.24 0 004.6-2.18 4 4 0 011.73-1 1.58 1.58 0 011 .58l.93.92 1-.85a3.52 3.52 0 012.14-1m0-1.4a4.86 4.86 0 00-3.06 1.34 2.77 2.77 0 00-2-1 4.91 4.91 0 00-2.77 1.39A3.85 3.85 0 01157 196a12.18 12.18 0 01-1.89-.17c-.63.71-1 1.35-2 1.58a3.09 3.09 0 00-1.74-.56 10.08 10.08 0 00-2.76.72 2.28 2.28 0 01-.45 0c-.65 0-1.31-.2-2.08-.2s-2.32.8-3.1.8h-.13a3 3 0 00-.69-.09c-1 0-1.57.6-2.47 1l-.63-.47a9 9 0 01-1 .07 6.51 6.51 0 01-2.67-.7 6.72 6.72 0 00-1.79-.32 3.88 3.88 0 00-2.39 1 23.74 23.74 0 00-3.08 2v1l1.1 1.34c3.54.23 7.12.37 10.66.47 1.38 0 2.81.13 4.21.13a12.55 12.55 0 002.89-.29h.92c.93 0 1.83.11 2.73.11a7.16 7.16 0 002.67-.46l8.28.55.71-.55a5.62 5.62 0 011.95-.3 23 23 0 014.05.54 15.78 15.78 0 002.38.16c1.39 0 2.79-.14 4.17-.24.65 0 1.3-.08 1.94-.08a13.92 13.92 0 012.64.23 9.78 9.78 0 011.42-.15c2 0 2.43-.49 3.39-2.29a4.89 4.89 0 00-1.81-1.66c-1.33-1.34-3.05-.61-4.18-1.34a3.2 3.2 0 00-2.46-1.36 2.64 2.64 0 00-.94.17 3.94 3.94 0 00-1.18.79 18.71 18.71 0 00-1.42-2.52 1.6 1.6 0 01-1.11-.47 3.35 3.35 0 00-2.76-1.82h-.1zm-51.12-6.97a43.38 43.38 0 017.4.92 4.6 4.6 0 00.84.08 7.94 7.94 0 002.6-.56l.29-.1.43-.12.2-.06a7.4 7.4 0 011.48.27l.56.14.5-.3a1.42 1.42 0 01.74-.18 6.72 6.72 0 011.85.4l.57.17.22.06h.24a4.5 4.5 0 001.36-.35l.39-.15a5.9 5.9 0 01.75-.05 14.41 14.41 0 012.58.34 16.33 16.33 0 003.11.38 5.82 5.82 0 00.59 0h.29l.36-.1a4.06 4.06 0 002.52 1h.11a4.8 4.8 0 013.18 1.09c-.06.86-.28 1-.71 1l-6-.18c-4-.12-8.06-.26-12.06-.26h-3.98c-1.8 0-3.66.07-5.45.13s-3.63.12-5.43.12c-1.15 0-2.18 0-3.15-.08a2.64 2.64 0 01-1.24-.78l-.07-.08.41-.49a5.17 5.17 0 012.77-1.59 17.7 17.7 0 001.74-.66m-18.25.6a9.52 9.52 0 003.34.79 3.62 3.62 0 001.92-.5.91.91 0 01.5-.13 5.78 5.78 0 011.74.46 8.38 8.38 0 002.39.59h.22a3.36 3.36 0 011.28.28l.13.53-.27.41c-.45.68-.88.78-2.38.88-.8 0-1.65.06-2.59.06-1.34 0-2.71 0-4-.08s-2.73-.07-4.1-.07a43.48 43.48 0 00-5.92.34c-.37.06-.71.13-1 .21a6.33 6.33 0 01-1.17.18c-.2 0-.41 0-.76-.48v-.07a30.64 30.64 0 013.38-2.48l.59-.39a14.15 14.15 0 002.92.37 9.09 9.09 0 003.88-.9m17.94-2c-1.94 1-3.79.93-5.29 2.76l-.08-.31a6.12 6.12 0 00-2.46-.64H109c-1.35-.07-2.84-1.05-4.21-1.05a2.35 2.35 0 00-1.24.34 2.2 2.2 0 01-1.18.29 9.93 9.93 0 01-3.39-.92 8.17 8.17 0 01-3.83 1 14.05 14.05 0 01-3.2-.47 35.13 35.13 0 00-5.37 4l.48 1.11a2.25 2.25 0 002 1.19 18.11 18.11 0 002.43-.41 43.57 43.57 0 015.7-.32c2.71 0 5.42.15 8.13.15.88 0 1.77 0 2.66-.06 1.51-.1 2.61-.2 3.48-1.5a4 4 0 002 1.18c1.12.07 2.26.09 3.4.09 3.63 0 7.31-.25 10.88-.25h3.92c6 0 12.18.3 18.12.44 1.77-.23 2.05-1.4 2.05-3a6 6 0 00-4.49-1.89 3.16 3.16 0 01-2.37-1.19l-1.11.32h-.49c-1.92 0-3.78-.72-5.69-.72a6.85 6.85 0 00-1 .08 11.55 11.55 0 01-1.58.47 10.67 10.67 0 00-2.8-.62 2.77 2.77 0 00-1.46.38 8.1 8.1 0 00-2-.31c-.31.06-.57.17-.87.23a8 8 0 01-2.5.61 3.79 3.79 0 01-.58 0 42.34 42.34 0 00-8-1zM128 201.7v-1.07l-.5.4.5.67"/><path class="e" d="M127.65 210.66v-2.17c-.17-.3-.47-.63-.84-1.17a4.55 4.55 0 01-2.23 0c-1-.36-2-1-3-1.3-1.17-1.47-2.88-1.23-4.54-1l.13-.71-.06-.83c-1.84-3-3.94-2-6.38-.5-1.33-1-2.1-.94-3.6-.27l-.33-.33-1.17-.9c-1 .37-1.77.8-2.6.1-3.84-1.5-4.47 1.17-6.45 3.44-1.8-.91-3.56.6-4.93 1.56-.84.57-1.1.24-2.11-.2a6.74 6.74 0 00-1.7 1.27 5.08 5.08 0 00-4.64.3c-1.79-1.13-2.8-.07-4.53.53-2.2.74-5.21-1.13-4.9 2.87A5 5 0 0076 212.7c5.71.1 11.48-.84 17.15-1.14 6.11-.13 12.32-.06 18.42-.06 4.88.16 9.88.09 14.75.09l1.37-.93m-92.83-5.23c.43.17 1-.46 1.47-.63 1.84-.5 3 .4 4.64.66A8.67 8.67 0 0043 205c.83 2.17.73 1.9 2.93 2.27l.91.37.29.2c1.17-.37 3.34.23 4.41.7 2.27 1.33 1.23 3.07-.57 4-7.51-.27-15.25.36-22.69-1-3.07.4-6.64 0-9.77-.1-2.07-.07-2.57-.1-3.84-1.67a4.21 4.21 0 011.9-2.24c.33-.16.74-.46 1-.6.63-2.2 3-2 4.87-2 .56-.34 1.06-1.3 1.5-1.77 1.43-1.6 2.83-1.64 4.37-.1a5.66 5.66 0 015.7 1.94 4.71 4.71 0 00.77.46m45.83-10.9c1.17-.3 1.34.07 2.34.53a34 34 0 004.16 1.14c.71 2.23.14 2.7-1.73 3.3H85l-24.39-.07c-2.3.44-4.77-.13-7.07.17-3.07 0-6.38.5-9.31-.47h-.07c-1.47 1-4.47.6-5.94-.23L37 198c1-2.24 1.76-3.14 4.06-3.94a3.25 3.25 0 003-.13 2.46 2.46 0 013.63-.07c1.74 1.2 3.43-.4 5-1.23.83-.34 3.43-.87 3.9.07a2.84 2.84 0 013.7-.41c.54.57 2 2.1 2.91 1.54 1.46-2.24 3.33-1.57 5-.17a1.91 1.91 0 001.24.1 9.49 9.49 0 001.6.63c2.14-2.13 5.41.54 8 .31a10.69 10.69 0 001.47-.17m-43.34-9.48a6.29 6.29 0 013.34-.47c.76 1.37.86 1 2.4 1 1 .2 1.33.83 2.23 1a11.58 11.58 0 014.64 1.27c-.63 2.1-.77 2.57-2.83 2.87-1.68.93-5-.34-7.05.26l-.26.07c-1.2.6-4.11 0-5.64-.1a8.34 8.34 0 00-3.27.44c-3.34-.41-6.9-.17-10.25-.44-2.43 0-4.83.2-7.27.1l-.83-1.6.27-1.4 1-.57c.6-.13 1.47-.2 2-.33 1.77-1.94 4.84-2.17 7.18-2.9a2.83 2.83 0 001.33.7c1.64 0 3.11-.67 4.68.2 2.46-1 4.54.93 6.76.5.51-.2 1-.44 1.51-.67"/><path d="M128 211.23l.3-.57a1.61 1.61 0 00-1.13-.1l.83.67m81.76-100.79a5.21 5.21 0 011.83.77l.79.43a11 11 0 004.58 6.59l.2.13.23.06.65.16a3.1 3.1 0 011.7.69 6.37 6.37 0 01-.2.94 3.9 3.9 0 00.58 3.9l.12.13.16.09c1.18.75 2.44 1.38 3.65 2a33.64 33.64 0 014.27 2.42l-.11.08a5.89 5.89 0 00-.82.62h-.05a4.3 4.3 0 01-3.42 1.45 18.2 18.2 0 01-4.07-.68 20.74 20.74 0 00-4.75-.76h-.16a37.57 37.57 0 01-5.09-3.33 37.75 37.75 0 00-5.55-3.61l-.48-.24-.51.14c-1.7.45-3.47.75-5.35 1.07a40.31 40.31 0 00-8.64 2.14l-1.57.66.94 1.41.32.47.18.28.28.16c1.76 1 3.59 1.89 5.36 2.73 1.35.65 2.73 1.31 4.08 2h-.48a4.26 4.26 0 00-.73.05c-3.32-.32-6.81-.48-10.19-.64-1.93-.09-3.93-.18-5.85-.3h-.4l-.36.19c-.19.11-.4.2-.62.3-1 .48-2.79 1.28-2.79 3.38v.52l.34.39c.17.2.34.38.52.56-.8-.42-1.6-.86-2.41-1.31-1.35-.75-2.75-1.52-4.18-2.21l-.17-.09h-.2c-1.19-.21-2.35-.46-3.58-.73l-.95-.21-1.18-.25 1.56-.86c9-4.82 18.19-9.45 27.09-13.92 5.07-2.55 10.32-5.18 15.48-7.83m-67.12 6.94c3.25 2.56 6.5 5.45 9.65 8.25 2.28 2 4.63 4.12 7 6.06l-2.35-.51q-4.45-1-8.86-1.91h-.1a4 4 0 00-.6 0 8.28 8.28 0 00-2.2.38 5.83 5.83 0 01-1.3.26.76.76 0 01-.62-.28l-6.88-8.88.49-.28a7.07 7.07 0 00.76-.43 13.11 13.11 0 002.63-1.39 8.93 8.93 0 012.43-1.22m66.72-8.37c-14.35 7.37-28.72 14.3-42.93 21.94-1.14.6-2.3 1.29-3.4 1.89a1.27 1.27 0 01-.76.36c-.79 0-.78-1.67-1.53-2-5.84-4.81-11.76-10.58-17.83-15.31-2.37.26-3.94 2.17-6.08 2.84-.73.6-2.47 1-2.13 2.29l7.34 9.47a2.15 2.15 0 001.69.77c1.1 0 2.3-.64 3.5-.64a2.73 2.73 0 01.41 0c6.21 1.3 12.51 2.72 18.79 4 1.53.33 3 .68 4.57 1 4.91 2.37 9.34 5.68 14.84 6.55a13.9 13.9 0 003.14.79 2.12 2.12 0 001-.24.81.81 0 00-.55-1.18c-3.64-1.77-7.93-1.9-10.73-5.13 0-1.5 1.58-1.85 2.68-2.45 5.34.33 10.94.45 16.18.95a3.07 3.07 0 01.68-.06c.7 0 1.43.14 2.08.14a1.56 1.56 0 001.74-1.19c-3.9-2.54-8.16-4-12.08-6.31l-.31-.48c4.24-1.76 9.35-2 13.81-3.15 3.88 1.93 7.07 5.23 11 7.1h.46c2.85 0 6 1.44 8.82 1.44a5.69 5.69 0 004.45-1.9c.67-.6 1.81-1 2-2-2.71-2.33-6.19-3.5-9.16-5.36-1.1-1.17.1-2.76 0-4.26-.67-1.37-2.12-1.48-3.39-1.82a9.38 9.38 0 01-4.11-6.39c-1.43-.57-2.51-1.66-4.18-1.66z"/><path d="M171.42 113.82a13.3 13.3 0 012.66 2H174c-.13-.09-.3-.23-.43-.34a5.36 5.36 0 00-1.44-.94l-.55-.22-.55.25a12.2 12.2 0 01-1.74.6 9.82 9.82 0 00-3.71 1.73h-.05v.05l-.13.11a3.63 3.63 0 00-.58.63l-.08.12v.12a4.56 4.56 0 00-.28 1.53 4.88 4.88 0 01-.07.7 5 5 0 00-3 1.37 3.13 3.13 0 01-1.19.71 9 9 0 00-1.38-1.11l-.65-.47c3-1.7 6.12-3.3 9-4.79q1.23-.6 2.46-1.23l1.83-.91m0-1.56zm0 0c-1.64.8-3.26 1.65-4.89 2.45-3.48 1.77-7 3.59-10.34 5.52.33 1.71 2.15 2 3.15 3.32a1.92 1.92 0 00.81.18c1.54 0 2.6-2.08 4.26-2.08h.06c1.78-.23 1.11-2.15 1.5-3.08a4.85 4.85 0 01.56-.55c1.46-1.24 3.46-1.36 5.13-2.13.83.33 1.44 1.26 2.21 1.42 1.1-.23 2.69.21 2.92-.79-1.77-1.7-3.34-3.39-5.37-4.26z"/><path class="e" d="M244.9 126c0 .4-.44.57-.6.73-4.41 1-6.84-3.2-10.21-4.7a.71.71 0 01.23-1.27c3.64 1.44 7 3.54 10.58 5.24"/><path d="M16.57 129.88a18.48 18.48 0 012.83.29 21.91 21.91 0 003.37.32h.35a3.82 3.82 0 011.37 1.6c.23.45.42.93.63 1.43-.78-.17-1.58-.41-2.41-.66a19.6 19.6 0 00-5.65-1.1 9.23 9.23 0 00-1.4.1c0-.08 0-.16.05-.24a4.44 4.44 0 01.56-1.73h.3m0-1.4a8.71 8.71 0 00-.87 0c-1.5 1-1.14 3.28-2 4.81l.31.4a8 8 0 013-.57c3 0 5.79 1.43 8.66 1.91a7.74 7.74 0 001.27.08l.31-.24c-.63-1.06-1-2.33-1.58-3.47a4.91 4.91 0 00-2.29-2.37h-.66c-2.2 0-4.08-.61-6.2-.61zm99.27-27.63l.3.11c3.08 1.21 5.28 2.26 5.5 4.86v.17l.06.17a6.5 6.5 0 00.25.61c.06.13.11.25.15.35a48.62 48.62 0 01-7.79 2.28l-.29.07-.59.14-.31.53-.31.55-.6 1 .94.75a32 32 0 006.2 3.6 39.31 39.31 0 013.94 2.07 3.82 3.82 0 01.6 2.9 14.35 14.35 0 01-3 .54l-.88.1a30.79 30.79 0 01-3-2.62 31.39 31.39 0 00-3.87-3.32l-.41-.28h-.5c-2.35.2-4.43 1.85-6 3l-.53.43v1.93l.28.38c.61.8 1.26 1.6 1.88 2.37a53.16 53.16 0 013.78 5.12 6.77 6.77 0 01-1 .15l-.6.08a20.89 20.89 0 00-3.29-1.19c-2.83-.84-4.59-1.47-5.14-3.76l-.1-.43-.34-.3-1.26-1.1-.31-.27-.4-.06-6.87-1-.37-.05-.35.13c-1.49.58-2 2.13-2.33 3.26-.09.26-.2.62-.3.86a3.88 3.88 0 01-.39-.25l-.19-.13-.22-.07a9.57 9.57 0 01-1.74-.82 7.63 7.63 0 00-3.69-1.26 4.1 4.1 0 00-1.3.2h-.17c-.78.36-1.59.67-2.44 1a21.87 21.87 0 00-5.4 2.71l-1.26.95 1.1 1.13a13.88 13.88 0 003.06 2.26 14.74 14.74 0 011.89 1.25l-.59.21c-.3.1-.63.2-1 .34a10.57 10.57 0 01-2.86-1.18 15 15 0 00-2.75-1.24l-.25-.08h-.27c-2.35.18-4.68.5-6.94.81-1.55.22-3 .42-4.52.58l2-1.15c1.36-.77 2.64-1.51 4-2.17 8.5-4.35 17.23-9.19 25.67-13.87 8.25-4.57 16.77-9.29 25.06-13.54m-68.37 4.6c1.79.71 4 1.46 6.24 2.26A113.23 113.23 0 0165.08 112a2.24 2.24 0 01-.62.07h-1.62a3.51 3.51 0 00-3.32 1.93v.16a3.81 3.81 0 00-.19 1.31v.07a17.58 17.58 0 00-6.22 2.6c-.79.45-1.53.89-2.28 1.25l-.23.11-.18.18c-1.24 1.31-1.13 3-1 4.44v1a5.75 5.75 0 01-2.41.5c-1.49.12-3.18.25-4.48 1.59l-.47.49.09.66c.6 4.77 4.79 5.38 7.85 5.83.82.12 1.59.24 2.27.41l.42.1.4-.15.83-.31-4.78 4-.34-.06c-1.4-.91-2.86-1.78-4.28-2.62a72.14 72.14 0 01-7.67-5 2.43 2.43 0 00.35-2.68l-.12-.21-.18-.16-2.6-2.37-.4-.37h-.6c-.46 0-.93 0-1.38.09s-.85.07-1.23.07c-.83 0-1.11-.18-1.26-.34s-.37-.38-.57-.57a8.07 8.07 0 01-.58-.59 9.56 9.56 0 01.94-1.06c.87-.88 2-2 1.84-3.55v-.39l-.23-.32a4.89 4.89 0 00-2.82-2c3-1.75 6.18-3.42 9.28-5 3.43-1.79 7-3.64 10.2-5.59m68.3-6.14c-17 8.67-34.32 19-51.3 27.7-3.87 2-7.68 4.62-11.92 6.16-3.47-.87-8.47-.31-9.07-5.05 1.87-1.94 5.29-.4 7.26-2.37.16-1.77-.58-3.86.63-5.13 2.76-1.34 5.38-3.52 8.68-3.79.9-.33.45-1.51.71-2.21a2.09 2.09 0 012.1-1c.53 0 1.09.06 1.62.06a3.57 3.57 0 001.1-.15c.89.31 1.89 1.34 2.75 1.34a.92.92 0 00.4-.08c2.87-3.37-13.85-7.79-21.39-10.89-6.7 4.14-14.74 7.68-21.62 11.91-.53.34-1.12.7-1.66 1l.55 1.11a.4.4 0 00.28.11c.27 0 .58-.27.83-.27a2.38 2.38 0 011.35-.42 3.33 3.33 0 012.6 1.52c.1 1.51-1.82 2.51-2.69 4-.67 1 .65 1.85 1.42 2.68a3 3 0 002.29.79c.87 0 1.8-.16 2.61-.16l2.6 2.37c.5.94-1 1.53-.71 2.53 4 3.3 8.72 5.64 13 8.44l1.26.24 7.74-6.55c4.47-.33 8.92-1.25 13.49-1.58 2.17.67 3.87 2.26 6.24 2.52 1.16-.6 2.72-.62 3.39-1.89-1.6-2.1-4.2-2.71-6-4.58 2.2-1.66 5-2.38 7.57-3.55a3.14 3.14 0 01.89-.13c1.76 0 3.31 1.51 5 2a2.61 2.61 0 001.4.59c1.61 0 1.19-3.62 2.94-4.3l6.87 1 1.26 1.11c1.1 4.64 6.25 4.21 9.55 6.07 1.27-.26 3.1-.05 3.63-1.42-1.7-3.1-4.18-5.8-6.31-8.6v-.79c1.59-1.26 3.34-2.6 5.21-2.76 2.6 1.77 4.82 4.63 7.26 6.23 1.86-.26 3.85-.26 5.52-1.1a5.47 5.47 0 00-1-5c-3.2-2-7.14-3.25-10.18-5.68l.32-.56a45.11 45.11 0 009.23-2.84 4 4 0 00-.55-2.29c-.34-4.07-4.39-5.22-7.26-6.39z"/><path d="M116 97.58l-37.8 20-13-9.16-18.2-6.26-44 24.15 2.37 1.42 41.83-23 16.89 5.84 14 9.71 38-20 13.42 6.95 9.86 5.13 11.45 10.57 21-10.18 5.6.48 10.58 6.7 22.26-10.65 3.07 1.42 4.74.55L229 114l23.91 12.63 1.9-1.73-25-13.1-11.29-2.85-4.57-.55-3.71-1.73-22.1 10.57-10.02-6.24-6.78-.63-20.21 9.7-10.49-9.63-11.21-5.84-13.42-7zM5.34 140.17c2.47.13 2.2.47 4.76.8a189.56 189.56 0 0124.13 5.64c27.63 8.71 54.12 22.55 83.15 26a141.85 141.85 0 0016.48.6c16.85-.83 33.1-4.5 49.25-9.34 9.68-3 19.55-6.31 29.13-9.58 13-4.37 28.38-8.77 42.16-10l-1.24 2.07c-31.53 1.37-76.26 29.3-123.87 29.3-44 0-79.54-27.73-123.62-33"/><path d="M51.92 154.22l-3.33-1.37a275.52 275.52 0 0129-8.14 212.46 212.46 0 0129.43-4 253.06 253.06 0 0132.93.71c23.39 2.27 46.64 6.54 69.84 10l7.57 1.13.46.91-3 1.1c-68.5-10.1-102.67-20.45-162.89-.36"/><g clip-path="url(#a)"><path d="M28.65 226.86l-.73-.64-3.1 3.27h-.27c-.74 0-1.47-2.34-2.8-5.41s-2-4.07-2.54-4.07-1.2 1-2.53 4.07-2.07 5.41-2.8 5.41h-.38l-3.06-3.27-.73.64v66.39c0 2.08 2.46 7.91 5.47 11.22v6.87h2.19v-5a3.68 3.68 0 001.81.47 4 4 0 001.87-.54v5.07h2.16v-6.93c3-3.3 5.44-9 5.44-11.11v-53.43zm-10.77-1c1-2.17 1.29-1.6 1.29-1.63s.34-.54 1.3 1.63 2.24 3.81 2.24 5.71a7.75 7.75 0 01-1.8 4.6c-.77-1.57-1.27-2.1-1.67-2.1s-.9.57-1.7 2.24a7.7 7.7 0 01-1.91-4.74c0-1.91 1.27-3.57 2.25-5.72zm3 23.66c-.77-1.57-1.27-2.11-1.67-2.11s-.9.57-1.7 2.24a7.7 7.7 0 01-1.91-4.74c0-1.9 1.27-3.54 2.25-5.7s1.29-1.6 1.29-1.64.34-.53 1.3 1.64 2.24 3.8 2.24 5.7a7.76 7.76 0 01-1.8 4.61zm0 13.35c-.77-1.57-1.27-2.1-1.67-2.1s-.9.57-1.7 2.23a7.69 7.69 0 01-1.91-4.73c0-1.91 1.27-3.55 2.25-5.71s1.29-1.6 1.29-1.64.34-.53 1.3 1.64 2.24 3.8 2.24 5.71a7.75 7.75 0 01-1.8 4.6zm0 13.35c-.77-1.57-1.27-2.11-1.67-2.11s-.9.57-1.7 2.24a7.7 7.7 0 01-1.91-4.74c0-1.9 1.27-3.54 2.25-5.7s1.29-1.6 1.29-1.64.34-.53 1.3 1.64 2.24 3.8 2.24 5.7a7.78 7.78 0 01-1.8 4.61zm0 13.34c-.77-1.57-1.27-2.1-1.67-2.1s-.9.56-1.7 2.23a7.67 7.67 0 01-1.91-4.74c0-1.9 1.27-3.54 2.25-5.7s1.29-1.6 1.29-1.64.34-.53 1.3 1.64 2.24 3.8 2.24 5.7a7.76 7.76 0 01-1.8 4.61zm-9.2-56.82c0-1.9 1.9 1.2 2.53 2.1s2.06 2.4 2 3.67-1.24 2.57-1.81 3.94-.86 1.27-1.53.63a7.29 7.29 0 01-1.23-3.7zm0 13.34c0-1.9 1.9 1.2 2.53 2.11s2.06 2.4 2 3.66-1.24 2.57-1.81 3.94-.86 1.27-1.53.64a7.32 7.32 0 01-1.23-3.71zm0 13.35c0-1.9 1.9 1.2 2.53 2.1s2.06 2.4 2 3.67-1.24 2.57-1.81 3.94-.86 1.27-1.53.63a7.26 7.26 0 01-1.23-3.7zm0 13.35c0-1.9 1.9 1.2 2.53 2.1s2.06 2.41 2 3.67-1.24 2.57-1.81 3.94-.86 1.27-1.53.63a7.26 7.26 0 01-1.23-3.7zm2.76 23.06c-.56 1.36-.86 1.27-1.53.63a7.29 7.29 0 01-1.23-3.7v-6.64c0-1.9 1.9 1.2 2.53 2.1s2.06 2.4 2 3.67-1.21 2.56-1.74 3.93zm4.71 9c-2.27 0-3.17-4.81-3.17-6.54 0-2.47 2-6.81 3.17-7.11 1.2.3 3.17 4.64 3.17 7.11.03 1.75-.87 6.56-3.14 6.56zm7.47-12.1a7.3 7.3 0 01-1.24 3.7c-.66.64-1 .73-1.53-.63s-1.77-2.67-1.8-3.94 1.4-2.77 2-3.67 2.54-4 2.54-2.1zm0-13.35a7.27 7.27 0 01-1.24 3.7c-.66.64-1 .74-1.53-.63s-1.77-2.67-1.8-3.94 1.4-2.77 2-3.67 2.54-4 2.54-2.1zm0-13.35a7.27 7.27 0 01-1.24 3.7c-.66.64-1 .73-1.53-.63s-1.77-2.67-1.8-3.94 1.4-2.77 2-3.67 2.54-4 2.54-2.1zm0-13.35a7.33 7.33 0 01-1.24 3.71c-.66.63-1 .73-1.53-.64s-1.77-2.67-1.8-3.94 1.4-2.76 2-3.66 2.54-4 2.54-2.11zm0-13.34a7.3 7.3 0 01-1.24 3.7c-.66.64-1 .73-1.53-.63s-1.77-2.67-1.8-3.94 1.4-2.77 2-3.67 2.54-4 2.54-2.1zm24.05-12.49l-.73-.64-3.1 3.27h-.27c-.74 0-1.47-2.34-2.8-5.41s-2-4.07-2.54-4.07-1.2 1-2.53 4.07-2.07 5.41-2.8 5.41h-.38l-3.06-3.27-.73.64v66.39c0 2.08 2.46 7.91 5.47 11.22v6.87h2.19v-5a3.68 3.68 0 001.81.47 4 4 0 001.87-.54v5.07h2.16v-6.93c3-3.3 5.44-9 5.44-11.11v-53.43zm-10.77-1c1-2.17 1.29-1.6 1.29-1.63s.34-.54 1.3 1.63 2.24 3.81 2.24 5.71a7.75 7.75 0 01-1.8 4.6c-.77-1.57-1.27-2.1-1.67-2.1s-.9.57-1.7 2.24a7.7 7.7 0 01-1.91-4.74c0-1.91 1.27-3.57 2.25-5.72zm3 23.66c-.77-1.57-1.27-2.11-1.67-2.11s-.9.57-1.7 2.24a7.7 7.7 0 01-1.91-4.74c0-1.9 1.27-3.54 2.25-5.7s1.29-1.6 1.29-1.64.34-.53 1.3 1.64 2.24 3.8 2.24 5.7a7.76 7.76 0 01-1.8 4.61zm0 13.35c-.77-1.57-1.27-2.1-1.67-2.1s-.9.57-1.7 2.23a7.69 7.69 0 01-1.91-4.73c0-1.91 1.27-3.55 2.25-5.71s1.29-1.6 1.29-1.64.34-.53 1.3 1.64 2.24 3.8 2.24 5.71a7.75 7.75 0 01-1.8 4.6zm0 13.35c-.77-1.57-1.27-2.11-1.67-2.11s-.9.57-1.7 2.24a7.7 7.7 0 01-1.91-4.74c0-1.9 1.27-3.54 2.25-5.7s1.29-1.6 1.29-1.64.34-.53 1.3 1.64 2.24 3.8 2.24 5.7a7.78 7.78 0 01-1.8 4.61zm0 13.34c-.77-1.57-1.27-2.1-1.67-2.1s-.9.56-1.7 2.23a7.67 7.67 0 01-1.91-4.74c0-1.9 1.27-3.54 2.25-5.7s1.29-1.6 1.29-1.64.34-.53 1.3 1.64 2.24 3.8 2.24 5.7a7.76 7.76 0 01-1.8 4.61zm-9.2-56.82c0-1.9 1.9 1.2 2.53 2.1s2.06 2.4 2 3.67-1.24 2.57-1.81 3.94-.86 1.27-1.53.63a7.29 7.29 0 01-1.23-3.7zm0 13.34c0-1.9 1.9 1.2 2.53 2.11s2.06 2.4 2 3.66-1.24 2.57-1.81 3.94-.86 1.27-1.53.64a7.32 7.32 0 01-1.23-3.71zm0 13.35c0-1.9 1.9 1.2 2.53 2.1s2.06 2.4 2 3.67-1.24 2.57-1.81 3.94-.86 1.27-1.53.63a7.26 7.26 0 01-1.23-3.7zm0 13.35c0-1.9 1.9 1.2 2.53 2.1s2.06 2.41 2 3.67-1.24 2.57-1.81 3.94-.86 1.27-1.53.63a7.26 7.26 0 01-1.23-3.7zm2.76 23.06c-.56 1.36-.86 1.27-1.53.63a7.29 7.29 0 01-1.23-3.7v-6.64c0-1.9 1.9 1.2 2.53 2.1s2.06 2.4 2 3.67-1.17 2.56-1.74 3.93zm4.71 9c-2.27 0-3.17-4.81-3.17-6.54 0-2.47 2-6.81 3.17-7.11 1.2.3 3.17 4.64 3.17 7.11.03 1.75-.87 6.56-3.14 6.56zm7.47-12.1a7.3 7.3 0 01-1.24 3.7c-.66.64-1 .73-1.53-.63s-1.77-2.67-1.8-3.94 1.4-2.77 2-3.67 2.54-4 2.54-2.1zm0-13.35a7.27 7.27 0 01-1.24 3.7c-.66.64-1 .74-1.53-.63s-1.77-2.67-1.8-3.94 1.4-2.77 2-3.67 2.54-4 2.54-2.1zm0-13.35a7.27 7.27 0 01-1.24 3.7c-.66.64-1 .73-1.53-.63s-1.77-2.67-1.8-3.94 1.4-2.77 2-3.67 2.54-4 2.54-2.1zm0-13.35a7.33 7.33 0 01-1.24 3.71c-.66.63-1 .73-1.53-.64s-1.77-2.67-1.8-3.94 1.4-2.76 2-3.66 2.54-4 2.54-2.11zm0-13.34a7.3 7.3 0 01-1.24 3.7c-.66.64-1 .73-1.53-.63s-1.77-2.67-1.8-3.94 1.4-2.77 2-3.67 2.54-4 2.54-2.1zm24.06-12.49l-.73-.64-3.1 3.27h-.28c-.73 0-1.46-2.34-2.8-5.41s-2-4.07-2.53-4.07-1.2 1-2.54 4.07-2.07 5.41-2.8 5.41h-.37l-3.07-3.27-.73.64v66.39c0 2.08 2.47 7.91 5.47 11.22v6.87h2.2v-5a3.67 3.67 0 001.8.47 4 4 0 001.87-.54v5.07h2.17v-6.93c3-3.3 5.44-9 5.44-11.11v-53.43zm-10.78-1c1-2.17 1.3-1.6 1.3-1.63s.33-.54 1.3 1.63 2.24 3.81 2.24 5.71a7.77 7.77 0 01-1.81 4.6c-.76-1.57-1.26-2.1-1.67-2.1s-.9.57-1.69 2.24a7.64 7.64 0 01-1.91-4.74c0-1.91 1.32-3.57 2.24-5.72zm1.36 48.25c-.42 0-.9.57-1.69 2.24a7.64 7.64 0 01-1.91-4.74c0-1.9 1.27-3.54 2.24-5.7s1.3-1.6 1.3-1.64.33-.53 1.3 1.64 2.24 3.8 2.24 5.7a7.79 7.79 0 01-1.76 4.6c-.81-1.57-1.31-2.11-1.72-2.11zm3.48 10.84a7.77 7.77 0 01-1.76 4.6c-.76-1.57-1.26-2.1-1.67-2.1s-.9.56-1.69 2.23a7.62 7.62 0 01-1.91-4.74c0-1.9 1.27-3.54 2.24-5.7s1.3-1.6 1.3-1.64.33-.53 1.3 1.64 2.19 3.76 2.19 5.7zm-3.48-24.18c-.42 0-.9.57-1.69 2.23a7.63 7.63 0 01-1.91-4.73c0-1.91 1.27-3.55 2.24-5.71s1.3-1.6 1.3-1.64.33-.53 1.3 1.64 2.24 3.8 2.24 5.71a7.77 7.77 0 01-1.81 4.6c-.76-1.58-1.26-2.11-1.67-2.11zm0-13.36c-.42 0-.9.57-1.69 2.24a7.64 7.64 0 01-1.91-4.74c0-1.9 1.27-3.54 2.24-5.7s1.3-1.6 1.3-1.64.33-.53 1.3 1.64 2.24 3.8 2.24 5.7a7.77 7.77 0 01-1.76 4.6c-.81-1.57-1.31-2.11-1.72-2.11zm-7.53-14.67c0-1.9 1.9 1.2 2.53 2.1s2.07 2.4 2 3.67-1.23 2.57-1.8 3.94-.87 1.27-1.53.63a7.3 7.3 0 01-1.24-3.7zm0 13.34c0-1.9 1.9 1.2 2.53 2.11s2.07 2.4 2 3.66-1.23 2.57-1.8 3.94-.87 1.27-1.53.64a7.33 7.33 0 01-1.24-3.71zm0 13.35c0-1.9 1.9 1.2 2.53 2.1s2.07 2.4 2 3.67-1.23 2.57-1.8 3.94-.87 1.27-1.53.63a7.27 7.27 0 01-1.24-3.7zm0 13.35c0-1.9 1.9 1.2 2.53 2.1s2.07 2.41 2 3.67-1.23 2.57-1.8 3.94-.87 1.27-1.53.63a7.27 7.27 0 01-1.24-3.7zm2.77 23.06c-.56 1.36-.87 1.27-1.53.63a7.3 7.3 0 01-1.24-3.7v-6.64c0-1.9 1.9 1.2 2.53 2.1s2.07 2.4 2 3.67-1.19 2.56-1.76 3.93zm4.7 9c-2.27 0-3.17-4.81-3.17-6.54 0-2.47 2-6.81 3.17-7.11 1.2.3 3.17 4.64 3.17 7.11 0 1.75-.9 6.56-3.17 6.56zm7.47-12.1a7.29 7.29 0 01-1.23 3.7c-.67.64-1 .73-1.53-.63s-1.78-2.67-1.81-3.94 1.4-2.77 2-3.67 2.53-4 2.53-2.1zm0-13.35a7.26 7.26 0 01-1.23 3.7c-.67.64-1 .74-1.53-.63s-1.78-2.67-1.81-3.94 1.4-2.77 2-3.67 2.53-4 2.53-2.1zm0-13.35a7.26 7.26 0 01-1.23 3.7c-.67.64-1 .73-1.53-.63s-1.78-2.67-1.81-3.94 1.4-2.77 2-3.67 2.53-4 2.53-2.1zm0-13.35a7.32 7.32 0 01-1.23 3.71c-.67.63-1 .73-1.53-.64s-1.78-2.67-1.81-3.94 1.4-2.76 2-3.66 2.53-4 2.53-2.11zm0-13.34a7.29 7.29 0 01-1.23 3.7c-.67.64-1 .73-1.53-.63s-1.78-2.67-1.81-3.94 1.4-2.77 2-3.67 2.53-4 2.53-2.1zm24.03-12.49l-.73-.64-3.1 3.27h-.27c-.74 0-1.47-2.34-2.8-5.41s-2-4.07-2.53-4.07-1.21 1-2.54 4.07-2.07 5.41-2.8 5.41h-.38l-3.06-3.27-.73.64v66.39c0 2.08 2.46 7.91 5.47 11.22v6.87h2.2v-5a3.67 3.67 0 001.8.47 4 4 0 001.87-.54v5.07h2.16v-6.93c3-3.3 5.44-9 5.44-11.11v-53.43zm-10.77-1c1-2.17 1.29-1.6 1.29-1.63s.34-.54 1.3 1.63 2.24 3.81 2.24 5.71a7.75 7.75 0 01-1.8 4.6c-.77-1.57-1.27-2.1-1.67-2.1s-.9.57-1.7 2.24a7.68 7.68 0 01-1.9-4.74c0-1.91 1.29-3.57 2.29-5.72zm1.36 48.25c-.43 0-.9.57-1.7 2.24a7.68 7.68 0 01-1.9-4.74c0-1.9 1.26-3.54 2.24-5.7s1.29-1.6 1.29-1.64.34-.53 1.3 1.64 2.24 3.8 2.24 5.7a7.78 7.78 0 01-1.8 4.61c-.77-1.58-1.27-2.12-1.67-2.12zm3.47 10.84a7.76 7.76 0 01-1.8 4.61c-.77-1.57-1.27-2.1-1.67-2.1s-.9.56-1.7 2.23a7.66 7.66 0 01-1.9-4.74c0-1.9 1.26-3.54 2.24-5.7s1.29-1.6 1.29-1.64.34-.53 1.3 1.64 2.24 3.75 2.24 5.69zm-3.47-24.18c-.43 0-.9.57-1.7 2.23a7.68 7.68 0 01-1.9-4.73c0-1.91 1.26-3.55 2.24-5.71s1.29-1.6 1.29-1.64.34-.53 1.3 1.64 2.24 3.8 2.24 5.71a7.75 7.75 0 01-1.8 4.6c-.77-1.58-1.27-2.11-1.67-2.11zm0-13.36c-.43 0-.9.57-1.7 2.24a7.68 7.68 0 01-1.9-4.74c0-1.9 1.26-3.54 2.24-5.7s1.29-1.6 1.29-1.64.34-.53 1.3 1.64 2.24 3.8 2.24 5.7a7.76 7.76 0 01-1.8 4.61c-.77-1.58-1.27-2.12-1.67-2.12zm-7.53-14.67c0-1.9 1.9 1.2 2.53 2.1s2.06 2.4 2 3.67-1.24 2.57-1.81 3.94-.86 1.27-1.53.63a7.29 7.29 0 01-1.23-3.7zm0 13.34c0-1.9 1.9 1.2 2.53 2.11s2.06 2.4 2 3.66-1.24 2.57-1.81 3.94-.86 1.27-1.53.64a7.32 7.32 0 01-1.23-3.71zm0 13.35c0-1.9 1.9 1.2 2.53 2.1s2.06 2.4 2 3.67-1.24 2.57-1.81 3.94-.86 1.27-1.53.63a7.26 7.26 0 01-1.23-3.7zm0 13.35c0-1.9 1.9 1.2 2.53 2.1s2.06 2.41 2 3.67-1.24 2.57-1.81 3.94-.86 1.27-1.53.63a7.26 7.26 0 01-1.23-3.7zm2.76 23.06c-.56 1.36-.86 1.27-1.53.63a7.29 7.29 0 01-1.23-3.7v-6.64c0-1.9 1.9 1.2 2.53 2.1s2.06 2.4 2 3.67-1.2 2.56-1.77 3.93zm4.71 9c-2.27 0-3.17-4.81-3.17-6.54 0-2.47 2-6.81 3.17-7.11 1.2.3 3.17 4.64 3.17 7.11 0 1.75-.9 6.56-3.17 6.56zm7.47-12.1a7.3 7.3 0 01-1.24 3.7c-.66.64-1 .73-1.53-.63s-1.77-2.67-1.8-3.94 1.4-2.77 2-3.67 2.53-4 2.53-2.1zm0-13.35a7.27 7.27 0 01-1.24 3.7c-.66.64-1 .74-1.53-.63s-1.77-2.67-1.8-3.94 1.4-2.77 2-3.67 2.53-4 2.53-2.1zm0-13.35a7.27 7.27 0 01-1.24 3.7c-.66.64-1 .73-1.53-.63s-1.77-2.67-1.8-3.94 1.4-2.77 2-3.67 2.53-4 2.53-2.1zm0-13.35a7.33 7.33 0 01-1.24 3.71c-.66.63-1 .73-1.53-.64s-1.77-2.67-1.8-3.94 1.4-2.76 2-3.66 2.53-4 2.53-2.11zm0-13.34a7.3 7.3 0 01-1.24 3.7c-.66.64-1 .73-1.53-.63s-1.77-2.67-1.8-3.94 1.4-2.77 2-3.67 2.53-4 2.53-2.1zm24.02-12.49l-.73-.64-3.1 3.27h-.27c-.74 0-1.47-2.34-2.8-5.41s-2-4.07-2.53-4.07-1.21 1-2.54 4.07-2.07 5.41-2.8 5.41h-.38l-3.06-3.27-.73.64v66.39c0 2.08 2.46 7.91 5.47 11.22v6.87h2.2v-5a3.67 3.67 0 001.8.47 4 4 0 001.87-.54v5.07h2.16v-6.93c3-3.3 5.44-9 5.44-11.11v-53.43zm-10.77-1c1-2.17 1.29-1.6 1.29-1.63s.34-.54 1.3 1.63 2.24 3.81 2.24 5.71a7.75 7.75 0 01-1.8 4.6c-.77-1.57-1.27-2.1-1.67-2.1s-.9.57-1.7 2.24a7.68 7.68 0 01-1.9-4.74c0-1.91 1.27-3.57 2.27-5.72zm3 23.66c-.77-1.57-1.27-2.11-1.67-2.11s-.9.57-1.7 2.24a7.68 7.68 0 01-1.9-4.74c0-1.9 1.26-3.54 2.24-5.7s1.29-1.6 1.29-1.64.34-.53 1.3 1.64 2.24 3.8 2.24 5.7a7.76 7.76 0 01-1.8 4.61zm0 13.35c-.77-1.57-1.27-2.1-1.67-2.1s-.9.57-1.7 2.23a7.68 7.68 0 01-1.9-4.73c0-1.91 1.26-3.55 2.24-5.71s1.29-1.6 1.29-1.64.34-.53 1.3 1.64 2.24 3.8 2.24 5.71a7.75 7.75 0 01-1.8 4.6zm0 13.35c-.77-1.57-1.27-2.11-1.67-2.11s-.9.57-1.7 2.24a7.68 7.68 0 01-1.9-4.74c0-1.9 1.26-3.54 2.24-5.7s1.29-1.6 1.29-1.64.34-.53 1.3 1.64 2.24 3.8 2.24 5.7a7.78 7.78 0 01-1.8 4.61zm0 13.34c-.77-1.57-1.27-2.1-1.67-2.1s-.9.56-1.7 2.23a7.66 7.66 0 01-1.9-4.74c0-1.9 1.26-3.54 2.24-5.7s1.29-1.6 1.29-1.64.34-.53 1.3 1.64 2.24 3.8 2.24 5.7a7.76 7.76 0 01-1.8 4.61zm-9.2-56.82c0-1.9 1.9 1.2 2.53 2.1s2.06 2.4 2 3.67-1.24 2.57-1.81 3.94-.86 1.27-1.53.63a7.29 7.29 0 01-1.23-3.7zm0 13.34c0-1.9 1.9 1.2 2.53 2.11s2.06 2.4 2 3.66-1.24 2.57-1.81 3.94-.86 1.27-1.53.64a7.32 7.32 0 01-1.23-3.71zm0 13.35c0-1.9 1.9 1.2 2.53 2.1s2.06 2.4 2 3.67-1.24 2.57-1.81 3.94-.86 1.27-1.53.63a7.26 7.26 0 01-1.23-3.7zm0 13.35c0-1.9 1.9 1.2 2.53 2.1s2.06 2.41 2 3.67-1.24 2.57-1.81 3.94-.86 1.27-1.53.63a7.26 7.26 0 01-1.23-3.7zm2.76 23.06c-.56 1.36-.86 1.27-1.53.63a7.29 7.29 0 01-1.23-3.7v-6.64c0-1.9 1.9 1.2 2.53 2.1s2.06 2.4 2 3.67-1.17 2.56-1.74 3.93zm4.71 9c-2.27 0-3.17-4.81-3.17-6.54 0-2.47 2-6.81 3.17-7.11 1.2.3 3.17 4.64 3.17 7.11.03 1.75-.87 6.56-3.14 6.56zm7.47-12.1a7.3 7.3 0 01-1.24 3.7c-.66.64-1 .73-1.53-.63s-1.77-2.67-1.8-3.94 1.4-2.77 2-3.67 2.53-4 2.53-2.1zm0-13.35a7.27 7.27 0 01-1.24 3.7c-.66.64-1 .74-1.53-.63s-1.77-2.67-1.8-3.94 1.4-2.77 2-3.67 2.53-4 2.53-2.1zm0-13.35a7.27 7.27 0 01-1.24 3.7c-.66.64-1 .73-1.53-.63s-1.77-2.67-1.8-3.94 1.4-2.77 2-3.67 2.53-4 2.53-2.1zm0-13.35a7.33 7.33 0 01-1.24 3.71c-.66.63-1 .73-1.53-.64s-1.77-2.67-1.8-3.94 1.4-2.76 2-3.66 2.53-4 2.53-2.11zm0-13.34a7.3 7.3 0 01-1.24 3.7c-.66.64-1 .73-1.53-.63s-1.77-2.67-1.8-3.94 1.4-2.77 2-3.67 2.53-4 2.53-2.1zm24.06-12.49l-.73-.64-3.1 3.27h-.27c-.74 0-1.47-2.34-2.8-5.41s-2-4.07-2.54-4.07-1.2 1-2.53 4.07-2.08 5.41-2.81 5.41h-.37l-3.07-3.27-.73.64v66.39c0 2.08 2.47 7.91 5.47 11.22v6.87h2.2v-5a3.67 3.67 0 001.8.47 4 4 0 001.87-.54v5.07h2.17v-6.93c3-3.3 5.44-9 5.44-11.11v-53.43zm-10.78-1c1-2.17 1.3-1.6 1.3-1.63s.33-.54 1.3 1.63 2.24 3.81 2.24 5.71a7.7 7.7 0 01-1.81 4.6c-.76-1.57-1.26-2.1-1.66-2.1s-.91.57-1.7 2.24a7.64 7.64 0 01-1.91-4.74c0-1.91 1.25-3.57 2.25-5.72zm1.37 48.25c-.43 0-.91.57-1.7 2.24a7.64 7.64 0 01-1.91-4.74c0-1.9 1.27-3.54 2.24-5.7s1.3-1.6 1.3-1.64.33-.53 1.3 1.64 2.24 3.8 2.24 5.7a7.73 7.73 0 01-1.81 4.61c-.76-1.58-1.26-2.12-1.66-2.12zm3.47 10.84a7.71 7.71 0 01-1.81 4.61c-.76-1.57-1.26-2.1-1.66-2.1s-.91.56-1.7 2.23a7.62 7.62 0 01-1.91-4.74c0-1.9 1.27-3.54 2.24-5.7s1.3-1.6 1.3-1.64.33-.53 1.3 1.64 2.24 3.75 2.24 5.69zm-3.47-24.18c-.43 0-.91.57-1.7 2.23a7.63 7.63 0 01-1.91-4.73c0-1.91 1.27-3.55 2.24-5.71s1.3-1.6 1.3-1.64.33-.53 1.3 1.64 2.24 3.8 2.24 5.71a7.7 7.7 0 01-1.81 4.6c-.76-1.58-1.26-2.11-1.66-2.11zm0-13.36c-.43 0-.91.57-1.7 2.24a7.64 7.64 0 01-1.91-4.74c0-1.9 1.27-3.54 2.24-5.7s1.3-1.6 1.3-1.64.33-.53 1.3 1.64 2.24 3.8 2.24 5.7a7.71 7.71 0 01-1.81 4.61c-.76-1.58-1.26-2.12-1.66-2.12zm-7.54-14.67c0-1.9 1.9 1.2 2.53 2.1s2.07 2.4 2 3.67-1.23 2.57-1.8 3.94-.87 1.27-1.53.63a7.3 7.3 0 01-1.24-3.7zm0 13.34c0-1.9 1.9 1.2 2.53 2.11s2.07 2.4 2 3.66-1.23 2.57-1.8 3.94-.87 1.27-1.53.64a7.33 7.33 0 01-1.24-3.71zm0 13.35c0-1.9 1.9 1.2 2.53 2.1s2.07 2.4 2 3.67-1.23 2.57-1.8 3.94-.87 1.27-1.53.63a7.27 7.27 0 01-1.24-3.7zm0 13.35c0-1.9 1.9 1.2 2.53 2.1s2.07 2.41 2 3.67-1.23 2.57-1.8 3.94-.87 1.27-1.53.63a7.27 7.27 0 01-1.24-3.7zm2.77 23.06c-.56 1.36-.87 1.27-1.53.63a7.3 7.3 0 01-1.24-3.7v-6.64c0-1.9 1.9 1.2 2.53 2.1s2.07 2.4 2 3.67-1.19 2.56-1.76 3.93zm4.7 9c-2.27 0-3.17-4.81-3.17-6.54 0-2.47 2-6.81 3.17-7.11 1.21.3 3.17 4.64 3.17 7.11 0 1.75-.9 6.56-3.17 6.56zm7.47-12.1a7.29 7.29 0 01-1.23 3.7c-.67.64-1 .73-1.53-.63s-1.78-2.67-1.81-3.94 1.4-2.77 2-3.67 2.53-4 2.53-2.1zm0-13.35a7.26 7.26 0 01-1.23 3.7c-.67.64-1 .74-1.53-.63s-1.78-2.67-1.81-3.94 1.4-2.77 2-3.67 2.53-4 2.53-2.1zm0-13.35a7.26 7.26 0 01-1.23 3.7c-.67.64-1 .73-1.53-.63s-1.78-2.67-1.81-3.94 1.4-2.77 2-3.67 2.53-4 2.53-2.1zm0-13.35a7.32 7.32 0 01-1.23 3.71c-.67.63-1 .73-1.53-.64s-1.78-2.67-1.81-3.94 1.4-2.76 2-3.66 2.53-4 2.53-2.11zm0-13.34a7.29 7.29 0 01-1.23 3.7c-.67.64-1 .73-1.53-.63s-1.78-2.67-1.81-3.94 1.4-2.77 2-3.67 2.53-4 2.53-2.1zm24.02-12.49l-.73-.64-3.1 3.27h-.27c-.74 0-1.47-2.34-2.8-5.41s-2-4.07-2.54-4.07-1.2 1-2.53 4.07-2.07 5.41-2.8 5.41h-.38l-3.07-3.27-.73.64v66.39c0 2.08 2.47 7.91 5.47 11.22v6.87h2.2v-5a3.67 3.67 0 001.8.47 4 4 0 001.87-.54v5.07h2.17v-6.93c3-3.3 5.44-9 5.44-11.11v-53.43zm-10.78-1c1-2.17 1.3-1.6 1.3-1.63s.34-.54 1.3 1.63 2.24 3.81 2.24 5.71a7.7 7.7 0 01-1.81 4.6c-.76-1.57-1.26-2.1-1.66-2.1s-.91.57-1.7 2.24a7.7 7.7 0 01-1.91-4.74c0-1.91 1.24-3.57 2.24-5.72zm3 23.66c-.76-1.57-1.26-2.11-1.66-2.11s-.91.57-1.7 2.24a7.7 7.7 0 01-1.91-4.74c0-1.9 1.27-3.54 2.24-5.7s1.3-1.6 1.3-1.64.34-.53 1.3 1.64 2.24 3.8 2.24 5.7a7.71 7.71 0 01-1.81 4.61zm0 13.35c-.76-1.57-1.26-2.1-1.66-2.1s-.91.57-1.7 2.23a7.69 7.69 0 01-1.91-4.73c0-1.91 1.27-3.55 2.24-5.71s1.3-1.6 1.3-1.64.34-.53 1.3 1.64 2.24 3.8 2.24 5.71a7.7 7.7 0 01-1.81 4.6zm0 13.35c-.76-1.57-1.26-2.11-1.66-2.11s-.91.57-1.7 2.24a7.7 7.7 0 01-1.91-4.74c0-1.9 1.27-3.54 2.24-5.7s1.3-1.6 1.3-1.64.34-.53 1.3 1.64 2.24 3.8 2.24 5.7a7.73 7.73 0 01-1.81 4.61zm0 13.34c-.76-1.57-1.26-2.1-1.66-2.1s-.91.56-1.7 2.23a7.67 7.67 0 01-1.91-4.74c0-1.9 1.27-3.54 2.24-5.7s1.3-1.6 1.3-1.64.34-.53 1.3 1.64 2.24 3.8 2.24 5.7a7.71 7.71 0 01-1.81 4.61zm-9.2-56.82c0-1.9 1.9 1.2 2.54 2.1s2.06 2.4 2 3.67-1.23 2.57-1.8 3.94-.87 1.27-1.53.63a7.3 7.3 0 01-1.24-3.7zm0 13.34c0-1.9 1.9 1.2 2.54 2.11s2.06 2.4 2 3.66-1.23 2.57-1.8 3.94-.87 1.27-1.53.64a7.33 7.33 0 01-1.24-3.71zm0 13.35c0-1.9 1.9 1.2 2.54 2.1s2.06 2.4 2 3.67-1.23 2.57-1.8 3.94-.87 1.27-1.53.63a7.27 7.27 0 01-1.24-3.7zm0 13.35c0-1.9 1.9 1.2 2.54 2.1s2.06 2.41 2 3.67-1.23 2.57-1.8 3.94-.87 1.27-1.53.63a7.27 7.27 0 01-1.24-3.7zm2.77 23.06c-.56 1.36-.87 1.27-1.53.63a7.3 7.3 0 01-1.24-3.7v-6.64c0-1.9 1.9 1.2 2.54 2.1s2.06 2.4 2 3.67-1.17 2.56-1.74 3.93zm4.7 9c-2.27 0-3.17-4.81-3.17-6.54 0-2.47 2-6.81 3.17-7.11 1.21.3 3.17 4.64 3.17 7.11.03 1.75-.87 6.56-3.14 6.56zm7.47-12.1a7.29 7.29 0 01-1.23 3.7c-.67.64-1 .73-1.53-.63s-1.78-2.67-1.81-3.94 1.4-2.77 2-3.67 2.53-4 2.53-2.1zm0-13.35a7.26 7.26 0 01-1.23 3.7c-.67.64-1 .74-1.53-.63s-1.78-2.67-1.81-3.94 1.4-2.77 2-3.67 2.53-4 2.53-2.1zm0-13.35a7.26 7.26 0 01-1.23 3.7c-.67.64-1 .73-1.53-.63s-1.78-2.67-1.81-3.94 1.4-2.77 2-3.67 2.53-4 2.53-2.1zm0-13.35a7.32 7.32 0 01-1.23 3.71c-.67.63-1 .73-1.53-.64s-1.78-2.67-1.81-3.94 1.4-2.76 2-3.66 2.53-4 2.53-2.11zm0-13.34a7.29 7.29 0 01-1.23 3.7c-.67.64-1 .73-1.53-.63s-1.78-2.67-1.81-3.94 1.4-2.77 2-3.67 2.53-4 2.53-2.1zm24.06-12.49l-.73-.64-3.1 3.27h-.27c-.74 0-1.47-2.34-2.8-5.41s-2-4.07-2.54-4.07-1.2 1-2.53 4.07-2.07 5.41-2.8 5.41h-.38l-3.07-3.27-.73.64v66.39c0 2.08 2.47 7.91 5.47 11.22v6.87h2.25v-5a3.67 3.67 0 001.8.47 4 4 0 001.87-.54v5.07h2.17v-6.93c3-3.3 5.44-9 5.44-11.11v-53.43zm-10.78-1c1-2.17 1.3-1.6 1.3-1.63s.33-.54 1.3 1.63 2.24 3.81 2.24 5.71a7.7 7.7 0 01-1.81 4.6c-.76-1.57-1.26-2.1-1.66-2.1s-.91.57-1.7 2.24a7.7 7.7 0 01-1.91-4.74c0-1.91 1.27-3.57 2.22-5.72zm1.37 48.25c-.43 0-.91.57-1.7 2.24a7.7 7.7 0 01-1.91-4.74c0-1.9 1.27-3.54 2.24-5.7s1.3-1.6 1.3-1.64.33-.53 1.3 1.64 2.24 3.8 2.24 5.7a7.73 7.73 0 01-1.81 4.61c-.76-1.58-1.26-2.12-1.66-2.12zm3.47 10.84a7.71 7.71 0 01-1.81 4.61c-.76-1.57-1.26-2.1-1.66-2.1s-.91.56-1.7 2.23a7.67 7.67 0 01-1.91-4.74c0-1.9 1.27-3.54 2.24-5.7s1.3-1.6 1.3-1.64.33-.53 1.3 1.64 2.24 3.75 2.24 5.69zm-3.47-24.18c-.43 0-.91.57-1.7 2.23a7.69 7.69 0 01-1.91-4.73c0-1.91 1.27-3.55 2.24-5.71s1.3-1.6 1.3-1.64.33-.53 1.3 1.64 2.24 3.8 2.24 5.71a7.7 7.7 0 01-1.81 4.6c-.76-1.58-1.26-2.11-1.66-2.11zm0-13.36c-.43 0-.91.57-1.7 2.24a7.7 7.7 0 01-1.91-4.74c0-1.9 1.27-3.54 2.24-5.7s1.3-1.6 1.3-1.64.33-.53 1.3 1.64 2.24 3.8 2.24 5.7a7.71 7.71 0 01-1.81 4.61c-.76-1.58-1.26-2.12-1.66-2.12zm-7.54-14.67c0-1.9 1.9 1.2 2.54 2.1s2.06 2.4 2 3.67-1.23 2.57-1.8 3.94-.87 1.27-1.53.63a7.3 7.3 0 01-1.24-3.7zm0 13.34c0-1.9 1.9 1.2 2.54 2.11s2.06 2.4 2 3.66-1.23 2.57-1.8 3.94-.87 1.27-1.53.64a7.33 7.33 0 01-1.24-3.71zm0 13.35c0-1.9 1.9 1.2 2.54 2.1s2.06 2.4 2 3.67-1.23 2.57-1.8 3.94-.87 1.27-1.53.63a7.27 7.27 0 01-1.24-3.7zm0 13.35c0-1.9 1.9 1.2 2.54 2.1s2.06 2.41 2 3.67-1.23 2.57-1.8 3.94-.87 1.27-1.53.63a7.27 7.27 0 01-1.24-3.7zm2.77 23.06c-.56 1.36-.87 1.27-1.53.63a7.3 7.3 0 01-1.24-3.7v-6.64c0-1.9 1.9 1.2 2.54 2.1s2.06 2.4 2 3.67-1.2 2.56-1.77 3.93zm4.7 9c-2.27 0-3.17-4.81-3.17-6.54 0-2.47 2-6.81 3.17-7.11 1.21.3 3.17 4.64 3.17 7.11 0 1.75-.9 6.56-3.17 6.56zm7.47-12.1a7.29 7.29 0 01-1.23 3.7c-.67.64-1 .73-1.53-.63s-1.78-2.67-1.81-3.94 1.4-2.77 2-3.67 2.53-4 2.53-2.1zm0-13.35a7.26 7.26 0 01-1.23 3.7c-.67.64-1 .74-1.53-.63s-1.78-2.67-1.81-3.94 1.4-2.77 2-3.67 2.53-4 2.53-2.1zm0-13.35a7.26 7.26 0 01-1.23 3.7c-.67.64-1 .73-1.53-.63s-1.78-2.67-1.81-3.94 1.4-2.77 2-3.67 2.53-4 2.53-2.1zm0-13.35a7.32 7.32 0 01-1.23 3.71c-.67.63-1 .73-1.53-.64s-1.78-2.67-1.81-3.94 1.4-2.76 2-3.66 2.53-4 2.53-2.11zm0-13.34a7.29 7.29 0 01-1.23 3.7c-.67.64-1 .73-1.53-.63s-1.78-2.67-1.81-3.94 1.4-2.77 2-3.67 2.53-4 2.53-2.1zm24.04-12.49l-.74-.64-3.1 3.27h-.27c-.73 0-1.47-2.34-2.8-5.41s-2-4.07-2.53-4.07-1.21 1-2.54 4.07-2.07 5.41-2.8 5.41h-.37l-3.07-3.27-.73.64v66.39c0 2.08 2.46 7.91 5.47 11.22v6.87h2.22v-5a3.67 3.67 0 001.8.47 4 4 0 001.87-.54v5.07h2.17v-6.93c3-3.3 5.44-9 5.44-11.11v-53.43zm-10.78-1c1-2.17 1.3-1.6 1.3-1.63s.33-.54 1.29 1.63 2.24 3.81 2.24 5.71a7.75 7.75 0 01-1.8 4.6c-.77-1.57-1.27-2.1-1.67-2.1s-.9.57-1.7 2.24a7.68 7.68 0 01-1.9-4.74c0-1.91 1.27-3.57 2.24-5.72zm3 23.66c-.77-1.57-1.27-2.11-1.67-2.11s-.9.57-1.7 2.24a7.68 7.68 0 01-1.9-4.74c0-1.9 1.27-3.54 2.24-5.7s1.3-1.6 1.3-1.64.33-.53 1.29 1.64 2.24 3.8 2.24 5.7a7.76 7.76 0 01-1.8 4.61zm0 13.35c-.77-1.57-1.27-2.1-1.67-2.1s-.9.57-1.7 2.23a7.68 7.68 0 01-1.9-4.73c0-1.91 1.27-3.55 2.24-5.71s1.3-1.6 1.3-1.64.33-.53 1.29 1.64 2.24 3.8 2.24 5.71a7.75 7.75 0 01-1.8 4.6zm0 13.35c-.77-1.57-1.27-2.11-1.67-2.11s-.9.57-1.7 2.24a7.68 7.68 0 01-1.9-4.74c0-1.9 1.27-3.54 2.24-5.7s1.3-1.6 1.3-1.64.33-.53 1.29 1.64 2.24 3.8 2.24 5.7a7.78 7.78 0 01-1.8 4.61zm0 13.34c-.77-1.57-1.27-2.1-1.67-2.1s-.9.56-1.7 2.23a7.66 7.66 0 01-1.9-4.74c0-1.9 1.27-3.54 2.24-5.7s1.3-1.6 1.3-1.64.33-.53 1.29 1.64 2.24 3.8 2.24 5.7a7.76 7.76 0 01-1.8 4.61zm-9.2-56.82c0-1.9 1.9 1.2 2.53 2.1s2.07 2.4 2 3.67-1.23 2.57-1.81 3.94-.86 1.27-1.53.63a7.29 7.29 0 01-1.23-3.7zm0 13.34c0-1.9 1.9 1.2 2.53 2.11s2.07 2.4 2 3.66-1.23 2.57-1.81 3.94-.86 1.27-1.53.64a7.32 7.32 0 01-1.23-3.71zm0 13.35c0-1.9 1.9 1.2 2.53 2.1s2.07 2.4 2 3.67-1.23 2.57-1.81 3.94-.86 1.27-1.53.63a7.26 7.26 0 01-1.23-3.7zm0 13.35c0-1.9 1.9 1.2 2.53 2.1s2.07 2.41 2 3.67-1.23 2.57-1.81 3.94-.86 1.27-1.53.63a7.26 7.26 0 01-1.23-3.7zm2.76 23.06c-.56 1.36-.86 1.27-1.53.63a7.29 7.29 0 01-1.23-3.7v-6.64c0-1.9 1.9 1.2 2.53 2.1s2.07 2.4 2 3.67-1.16 2.56-1.74 3.93zm4.71 9c-2.27 0-3.17-4.81-3.17-6.54 0-2.47 2-6.81 3.17-7.11 1.2.3 3.17 4.64 3.17 7.11.03 1.75-.87 6.56-3.14 6.56zm7.47-12.1a7.3 7.3 0 01-1.24 3.7c-.66.64-1 .73-1.53-.63s-1.77-2.67-1.8-3.94 1.4-2.77 2-3.67 2.53-4 2.53-2.1zm0-13.35a7.27 7.27 0 01-1.24 3.7c-.66.64-1 .74-1.53-.63s-1.77-2.67-1.8-3.94 1.4-2.77 2-3.67 2.53-4 2.53-2.1zm0-13.35a7.27 7.27 0 01-1.24 3.7c-.66.64-1 .73-1.53-.63s-1.77-2.67-1.8-3.94 1.4-2.77 2-3.67 2.53-4 2.53-2.1zm0-13.35a7.33 7.33 0 01-1.24 3.71c-.66.63-1 .73-1.53-.64s-1.77-2.67-1.8-3.94 1.4-2.76 2-3.66 2.53-4 2.53-2.11zm0-13.34a7.3 7.3 0 01-1.24 3.7c-.66.64-1 .73-1.53-.63s-1.77-2.67-1.8-3.94 1.4-2.77 2-3.67 2.53-4 2.53-2.1zm24.06-12.49l-.73-.64-3.1 3.27h-.27c-.74 0-1.47-2.34-2.8-5.41s-2-4.07-2.54-4.07-1.2 1-2.53 4.07-2.07 5.41-2.8 5.41h-.38l-3.06-3.27-.74.64v66.39c0 2.08 2.47 7.91 5.47 11.22v6.87h2.2v-5a3.68 3.68 0 001.81.47 4 4 0 001.86-.54v5.07h2.17v-6.93c3-3.3 5.44-9 5.44-11.11v-53.43zm-10.78-1c1-2.17 1.3-1.6 1.3-1.63s.34-.54 1.3 1.63 2.24 3.81 2.24 5.71a7.7 7.7 0 01-1.81 4.6c-.76-1.57-1.26-2.1-1.66-2.1s-.91.57-1.7 2.24a7.7 7.7 0 01-1.91-4.74c0-1.91 1.27-3.57 2.24-5.72zm3 23.66c-.76-1.57-1.26-2.11-1.66-2.11s-.91.57-1.7 2.24a7.7 7.7 0 01-1.91-4.74c0-1.9 1.27-3.54 2.24-5.7s1.3-1.6 1.3-1.64.34-.53 1.3 1.64 2.24 3.8 2.24 5.7a7.71 7.71 0 01-1.81 4.61zm0 13.35c-.76-1.57-1.26-2.1-1.66-2.1s-.91.57-1.7 2.23a7.69 7.69 0 01-1.91-4.73c0-1.91 1.27-3.55 2.24-5.71s1.3-1.6 1.3-1.64.34-.53 1.3 1.64 2.24 3.8 2.24 5.71a7.7 7.7 0 01-1.81 4.6zm0 13.35c-.76-1.57-1.26-2.11-1.66-2.11s-.91.57-1.7 2.24a7.7 7.7 0 01-1.91-4.74c0-1.9 1.27-3.54 2.24-5.7s1.3-1.6 1.3-1.64.34-.53 1.3 1.64 2.24 3.8 2.24 5.7a7.73 7.73 0 01-1.81 4.61zm0 13.34c-.76-1.57-1.26-2.1-1.66-2.1s-.91.56-1.7 2.23a7.67 7.67 0 01-1.91-4.74c0-1.9 1.27-3.54 2.24-5.7s1.3-1.6 1.3-1.64.34-.53 1.3 1.64 2.24 3.8 2.24 5.7a7.71 7.71 0 01-1.81 4.61zm-9.2-56.82c0-1.9 1.9 1.2 2.54 2.1s2.06 2.4 2 3.67-1.24 2.57-1.81 3.94-.87 1.27-1.53.63a7.3 7.3 0 01-1.24-3.7zm0 13.34c0-1.9 1.9 1.2 2.54 2.11s2.06 2.4 2 3.66-1.24 2.57-1.81 3.94-.87 1.27-1.53.64a7.33 7.33 0 01-1.24-3.71zm0 13.35c0-1.9 1.9 1.2 2.54 2.1s2.06 2.4 2 3.67-1.24 2.57-1.81 3.94-.87 1.27-1.53.63a7.27 7.27 0 01-1.24-3.7zm0 13.35c0-1.9 1.9 1.2 2.54 2.1s2.06 2.41 2 3.67-1.24 2.57-1.81 3.94-.87 1.27-1.53.63a7.27 7.27 0 01-1.24-3.7zm2.77 23.06c-.56 1.36-.87 1.27-1.53.63a7.3 7.3 0 01-1.24-3.7v-6.64c0-1.9 1.9 1.2 2.54 2.1s2.06 2.4 2 3.67-1.17 2.56-1.74 3.93zm4.7 9c-2.27 0-3.17-4.81-3.17-6.54 0-2.47 2-6.81 3.17-7.11 1.21.3 3.17 4.64 3.17 7.11.03 1.75-.87 6.56-3.14 6.56zm7.47-12.1a7.29 7.29 0 01-1.23 3.7c-.67.64-1 .73-1.53-.63s-1.78-2.67-1.81-3.94 1.4-2.77 2-3.67 2.53-4 2.53-2.1zm0-13.35a7.26 7.26 0 01-1.23 3.7c-.67.64-1 .74-1.53-.63s-1.78-2.67-1.81-3.94 1.4-2.77 2-3.67 2.53-4 2.53-2.1zm0-13.35a7.26 7.26 0 01-1.23 3.7c-.67.64-1 .73-1.53-.63s-1.78-2.67-1.81-3.94 1.4-2.77 2-3.67 2.53-4 2.53-2.1zm0-13.35a7.32 7.32 0 01-1.23 3.71c-.67.63-1 .73-1.53-.64s-1.78-2.67-1.81-3.94 1.4-2.76 2-3.66 2.53-4 2.53-2.11zm0-13.34a7.29 7.29 0 01-1.23 3.7c-.67.64-1 .73-1.53-.63s-1.78-2.67-1.81-3.94 1.4-2.77 2-3.67 2.53-4 2.53-2.1zm24.06-12.49l-.73-.64-3.1 3.27h-.27c-.74 0-1.47-2.34-2.8-5.41s-2-4.07-2.54-4.07-1.2 1-2.53 4.07-2.07 5.41-2.8 5.41h-.38l-3.06-3.27-.74.64v66.39c0 2.08 2.47 7.91 5.47 11.22v6.87h2.18v-5a3.68 3.68 0 001.81.47 4 4 0 001.86-.54v5.07h2.17v-6.93c3-3.3 5.44-9 5.44-11.11v-53.43zm-10.78-1c1-2.17 1.3-1.6 1.3-1.63s.34-.54 1.3 1.63 2.24 3.81 2.24 5.71a7.7 7.7 0 01-1.81 4.6c-.76-1.57-1.26-2.1-1.66-2.1s-.91.57-1.7 2.24a7.7 7.7 0 01-1.91-4.74c0-1.91 1.27-3.57 2.24-5.72zm3 23.66c-.76-1.57-1.26-2.11-1.66-2.11s-.91.57-1.7 2.24a7.7 7.7 0 01-1.91-4.74c0-1.9 1.27-3.54 2.24-5.7s1.3-1.6 1.3-1.64.34-.53 1.3 1.64 2.24 3.8 2.24 5.7a7.71 7.71 0 01-1.81 4.61zm0 13.35c-.76-1.57-1.26-2.1-1.66-2.1s-.91.57-1.7 2.23a7.69 7.69 0 01-1.91-4.73c0-1.91 1.27-3.55 2.24-5.71s1.3-1.6 1.3-1.64.34-.53 1.3 1.64 2.24 3.8 2.24 5.71a7.7 7.7 0 01-1.81 4.6zm-9.2-30.13c0-1.9 1.9 1.2 2.54 2.1s2.06 2.4 2 3.67-1.24 2.57-1.81 3.94-.86 1.27-1.53.63a7.3 7.3 0 01-1.24-3.7zm0 13.34c0-1.9 1.9 1.2 2.54 2.11s2.06 2.4 2 3.66-1.24 2.57-1.81 3.94-.86 1.27-1.53.64a7.33 7.33 0 01-1.24-3.71zm0 13.35c0-1.9 1.9 1.2 2.54 2.1s2.06 2.4 2 3.67-1.24 2.57-1.81 3.94-.86 1.27-1.53.63a7.27 7.27 0 01-1.24-3.7zm2.77 23.06c-.56 1.37-.86 1.27-1.53.63a7.27 7.27 0 01-1.24-3.7v-6.64c0-1.9 1.9 1.2 2.54 2.1s2.06 2.41 2 3.67-1.17 2.56-1.74 3.93zm6.43-6.27c-.76-1.57-1.26-2.11-1.66-2.11s-.91.57-1.7 2.24a7.7 7.7 0 01-1.91-4.74c0-1.9 1.27-3.54 2.24-5.7s1.3-1.6 1.3-1.64.34-.53 1.3 1.64 2.24 3.8 2.24 5.7a7.73 7.73 0 01-1.78 4.6zm5.74 3.2a7.26 7.26 0 01-1.23 3.7c-.67.64-1 .74-1.53-.63s-1.78-2.67-1.81-3.94 1.4-2.77 2-3.67 2.53-4 2.53-2.1zm0-13.35a7.26 7.26 0 01-1.23 3.7c-.67.64-1 .73-1.53-.63s-1.78-2.67-1.81-3.94 1.4-2.77 2-3.67 2.53-4 2.53-2.1zm0-13.35a7.32 7.32 0 01-1.23 3.71c-.67.63-1 .73-1.53-.64s-1.78-2.67-1.81-3.94 1.4-2.76 2-3.66 2.53-4 2.53-2.11zm0-13.34a7.29 7.29 0 01-1.23 3.7c-.67.64-1 .73-1.53-.63s-1.78-2.67-1.81-3.94 1.4-2.77 2-3.67 2.53-4 2.53-2.1z"/></g><path class="d" d="M129.33 5.71V0H0v228.43a40.21 40.21 0 0022.86 36l106.44 53.75v-6.37h-.07l-104-52.51a34.51 34.51 0 01-19.55-30.9V5.68h123.66m0 306.1v6.33l106.43-53.71a40.18 40.18 0 0022.82-36V0H129.33v5.71h123.55v222.68a34.52 34.52 0 01-19.56 30.9l-104 52.51"/></svg>